<?xml version="1.0" standalone="no"?>
<!DOCTYPE svg PUBLIC "-//W3C//DTD SVG 20010904//EN"
 "http://www.w3.org/TR/2001/REC-SVG-20010904/DTD/svg10.dtd">
<svg version="1.0" xmlns="http://www.w3.org/2000/svg"
 width="300.000000pt" height="300.000000pt" viewBox="0 0 300.000000 300.000000"
 preserveAspectRatio="xMidYMid meet">
<metadata>
Created by potrace 1.11, written by Peter Selinger 2001-2013
</metadata>
<g transform="translate(0.000000,300.000000) scale(0.100000,-0.100000)"
fill="#000000" stroke="none">
<path d="M1275 2895 c-355 -65 -650 -333 -744 -674 -22 -79 -46 -279 -36 -290
4 -3 16 5 26 19 273 346 611 551 1023 622 103 17 149 19 311 15 113 -3 216
-11 255 -20 36 -8 67 -13 69 -11 11 10 -131 140 -210 194 -198 133 -462 188
-694 145z"/>
<path d="M1945 2483 c6 -5 50 -43 99 -83 275 -230 474 -582 537 -948 25 -151
26 -385 0 -532 -10 -58 -16 -107 -14 -109 8 -10 136 127 184 196 61 89 100
171 135 288 25 82 28 104 27 250 0 132 -3 174 -21 238 -92 337 -347 589 -688
683 -66 18 -275 32 -259 17z"/>
<path d="M348 2112 c-210 -220 -304 -522 -253 -813 77 -443 437 -766 875 -786
70 -3 111 -2 105 4 -5 5 -37 29 -70 54 -32 24 -100 85 -150 135 -360 361 -530
902 -440 1399 8 43 13 81 11 82 -2 2 -37 -32 -78 -75z"/>
<path d="M1442 1900 c-128 -19 -266 -127 -313 -247 -19 -46 -23 -78 -24 -153
0 -86 3 -101 32 -162 122 -259 460 -317 654 -111 88 93 124 206 107 338 -28
213 -237 367 -456 335z"/>
<path d="M2405 998 c-226 -286 -558 -489 -930 -568 -141 -30 -402 -38 -544
-16 -57 9 -106 14 -108 12 -10 -10 174 -167 242 -205 382 -218 845 -156 1150
153 169 170 259 373 272 614 3 61 4 112 2 112 -2 0 -40 -46 -84 -102z"/>
</g>
</svg>
